<svg version="1" xmlns="http://www.w3.org/2000/svg" width="1365.333" height="1365.333" viewBox="0 0 1024.000000 1024.000000"><path d="M504.6 53.6c-12.8 2.5-24.3 9.5-28.8 17.5-1.2 2.2-2.5 3.9-3 3.9-.4 0-.8.8-.8 1.8s-.3 2.2-.7 2.5c-.3.4-1.6 3.5-2.8 6.9l-2.2 6.3-7.4.1c-10.2.1-21 2.7-25 6.1-.8.7-2.1 1.3-2.7 1.3-.6 0-1.6.8-2.1 1.7-.6 1-1.1 1.4-1.1 1 0-1.7-7.8 7.6-10.4 12.3-2.4 4.3-8.3 19.8-9.1 24-.2.8-.4 1.5-.5 1.5-.1 0-.3.7-.5 1.5-.1.8-1 4.2-1.9 7.5-.8 3.3-1.8 7.8-2.1 10-.4 2.2-.9 4.9-1.2 6-.4 1.1-.8 2.7-.9 3.5-.8 5.1-1.3 8.2-2.4 14-.7 3.6-1.4 7.8-1.6 9.5-.2 1.6-.5 4.1-.8 5.5-.3 1.4-.8 5-1.1 8-.7 6-1.2 9.2-1.4 10-.1.3-1.7-2.3-3.6-5.7-10.6-18.6-24.4-22.4-39.8-10.9-15.5 11.7-25.6 21.9-31 31.6-2.7 5-8.8 21.5-8.1 22.2.2.3 0 2.7-.5 5.4s-1.2 7.8-1.6 11.4c-.4 3.6-.9 7.4-1.1 8.5-.3 1.1-.7 4.5-1 7.5-.3 3-.7 6.6-.9 8-.3 2.2-1.1 8.7-2 18-.2 1.4-.4 2.5-.4 2.5-.2 0-.5 5.4-1.6 23.5-.3 6.3-1.2 41.6-1.9 79-.1 5.2-.5 10.1-.9 10.8-.5.6-.4 1.2 0 1.2.5 0 .8 1.5.6 3.2-.2 1.8-.6 8.2-.8 14.3-.4 11.9-1.2 21.6-2 25.5-.5 2.3-.9 5.1-2 13.5-.3 1.6-.7 5-.9 7.5-.3 2.5-.7 6.5-1.1 9-.6 4.8-1 8.1-2 17.5-.3 3.3-.8 7.6-1.1 9.5-.3 1.9-.7 6-1 9-.2 3-.6 6.8-.8 8.5-.6 4.3-1.6 12.4-2 16.5-.3 1.9-.7 6-1 9-.4 3-.8 7.3-1.1 9.5-.2 2.2-1.1 9.2-1.9 15.5-.9 6.3-1.8 13.7-2.2 16.5-.7 5.6-.7 5.9-2.4 16.5-1.1 6.8-.9 25.8.5 38.5.2 2.2.6 6.2.9 9 .3 2.7.8 6.1 1 7.5.2 1.4.7 5 1.1 8 .4 3 .9 6.4 1.1 7.5.2 1.1.6 3.6.9 5.5.6 4.6 1.6 11 2.2 13.5.5 2.5 2.3 12.3 2.8 15 .4 2.3 1.2 6 2 9.5.3 1.4.8 3.2 1 4 .2.8.4 1.7.5 2 .1.3.2.8.2 1.1-.1.4.3 2.2.9 4 .6 1.9 1.3 4.5 1.6 5.9.7 3.4.9 4.2 1.5 6 .9 2.4 2.9 9.4 3.2 11 .2.8.6 2.2.9 3 .3.8 1.9 5.5 3.6 10.5 1.6 4.9 5.6 14.8 8.9 22 5.4 12.1 7.4 16.7 7.3 17.2 0 .2.8 2.3 1.9 4.8 1.1 2.5 1.7 4.5 1.3 4.5-.3 0-.1.6.4 1.2 2.3 3 5.6 19.5 5.7 28.5.1 5.1.3 9.3.6 9.3s.7 1.2.8 2.8c.1 1.5.5 3.8.8 5.2.3 1.4.7 3.4.9 4.5.3 1.1.7 3 .9 4.2.3 1.2.9 3 1.4 4 .5 1 .7 2.3.5 3-.2.6.1 1.4.6 1.8.6.3 1.1 1.5 1.1 2.6 0 1 .4 2.7.9 3.7.4.9 2.4 5.1 4.4 9.2 4 8.6 9.3 16.3 10.7 15.5.5-.3 1.1-.1 1.4.4.5.7 7.2 2.1 12.1 2.6.6 0 1.6.4 2.3.8.6.5 1.2.6 1.2.4 0-.3 3.3.2 7.3.9 3.9.8 9.2 1.7 11.7 2 2.5.3 5.2.8 6.2.9.9.2 3.8.7 6.5 1.1 2.6.3 5.5.8 6.3.9.9.2 4 .6 7 1 3 .3 6.6.8 8 1 3.1.4 10 1.2 16.5 2 29.4 3.6 82.9 4.1 107.2 1 12.3-1.6 27.1-3.7 28.8-4 2.8-.5 7.6-1.4 10.5-1.9 1.4-.3 2.5-.5 2.5-.6 0-.1 1.1-.3 2.5-.5 3.2-.6 6.5-1.3 6.5-1.5 0-.1 1.5-.3 3.3-.6 1.8-.2 4.2-.9 5.2-1.4 1.1-.6 2.3-.9 2.7-.9.4.1 1.5 0 2.3-.4 4.5-1.7 11-3.5 11-3.1 0 .3.7-.1 1.5-1 .9-.8 2.2-1.3 3-1 .8.4 1.5.1 1.5-.5s.7-1.1 1.5-1.1c2.2 0 5.5-2 8.8-5.3 2.2-2.2 2.7-3.4 2.3-5.5-.3-1.5-.8-5.6-1.1-9.2-.5-6.4-1.1-11.2-2-18-.3-1.9-.8-6.7-1-10.5-.3-3.9-.7-8.6-1-10.5-1.2-11.5-1.5-20.1-.6-21.7.5-1 2.2-4.3 3.7-7.3 2.7-5.6 7.9-13.7 9.9-15.5.6-.6 2.9-3.3 5-6 2.2-2.8 4.4-5.5 5-6.1.5-.6 2.1-2.6 3.5-4.4 1.4-1.8 3.6-4.8 5-6.5 1.4-1.8 3.2-4.3 4-5.5.8-1.2 2-2.8 2.5-3.4 3.2-3.6 20.4-29.6 24.1-36.2 1.5-2.7 3-5.1 3.4-5.4 2-1.5 18.2-32.9 30.6-59.5 4.2-9.1 12.5-32.2 12.9-36.3.3-2.6.8-5.8 1.1-7.2 1.4-7.8 1.8-29.9 1.8-94.5-.1-60.3-.4-73.4-1.7-80.5-1.9-10.9-5.6-24.7-7.3-28.2-.8-1.5-1.5-4.6-1.7-6.8-.1-2.2-.4-4-.7-4-1.1 0 .2-20.2 2.7-40.5 1.1-9.5.7-34.5-.6-34.5-.3 0-.7-1-.7-2.3-.3-4.1-5.3-13.4-9.9-18.1-10.1-10.6-24.5-12.7-39.5-5.8-7.7 3.5-21.7 15.3-24.8 20.9-1.3 2.3-1.9 1.7-2.5-2.7-.3-1.9-.6-3.5-.7-3.5-.1 0-.4-1.1-.6-2.5-.8-5.5-1.3-8.6-1.8-11-.3-1.4-1.3-5.7-2.1-9.5-.9-3.9-1.8-8.1-2.1-9.5-.3-1.4-1.9-7.9-3.6-14.5-1.6-6.6-3.1-12.7-3.3-13.5-.2-.8-.4-1.5-.5-1.5-.5 0-1-10.4-1.4-27.5-.5-25-1.1-32.7-4-55.3-1-7.4-3.9-24-5.1-29.7-.4-1.4-.8-3.4-1-4.5-1.4-6.7-1.7-8.1-2.2-9.5-.3-.8-.7-2-.9-2.5-1.9-7.7-3-11.1-3.7-11.6-.4-.3-.7-1-.6-1.5.2-1.6-1.4-5.8-5.9-14.8-4.5-8.9-14.2-20.3-19.5-22.7-1.2-.5-3.8-1.9-5.7-2.9-1.9-1.1-4.3-1.9-5.2-2-1 0-1.8-.4-1.8-.8s-1-.8-2.3-1c-1.3-.1-4.4-.4-7-.6-2.8-.3-4.7-.1-4.7.5s-.5.7-1.1.4c-1.2-.8-10.1 2.3-11.1 3.8-.3.6-1-.7-1.4-2.9-.3-2.1-1.1-4.5-1.7-5.2-.5-.6-.7-1.2-.4-1.2 1.7 0-6.8-19.8-11.6-27-10.6-15.8-23.9-21.2-43.1-17.4zm23.7 6.4c3.2 1.5 7.7 4.8 10 7.3 4.2 4.5 10.7 14.4 11.1 16.9.1.7.9 2.9 1.8 4.8 2.8 6 7 21.4 7.2 26.2 0 2.4.6 2.2 3.6-.9 6.6-6.9 19-8.5 30.2-3.9 8 3.4 20.3 14.6 22.6 20.6.3.8 1.4 2.7 2.4 4.2 1.1 1.6 1.7 2.8 1.3 2.8-.3 0 .1 1.2.9 2.7 2.1 3.7 4 8.6 3.7 9.7-.1.4.3 1.3.8 2 .5.6 1.1 2.3 1.3 3.6.2 1.4.6 2.9.9 3.5.4.5 1 2.8 1.4 5 .5 2.2.9 4.4 1.1 5 .9 3.2 3.7 16.4 4 18.5.2 1.4.5 3.4.7 4.5.3 1.1.8 4 1.1 6.5.3 2.5.8 5.6 1.1 7 .4 2.4.9 7.1 2 17.5.3 2.7.8 7 1 9.5.5 3.9.9 15.2 1.6 44.9.2 7.7 1.1 13.4 3.4 21.8.4 1.8 2.3 9.3 3.1 12.5.2 1 .6 2.7.9 3.8 1.8 7.3 5.6 24.8 6 27.9.2 1.4.4 2.6.5 2.6.1 0 .4 1.3.6 3 .6 4.2 1.1 7 1.3 7 .2 0 .4 1.6.6 3.5.1 1.9.6 6.6 1 10.5.4 3.8.7 7.6.8 8.2.1 3.1 1.5.9 2.1-3.4.9-6.9 3.9-12.3 10.9-19.6 26.1-27.3 53.7-23.2 62.2 9.1 1 4 1.3 9 1 17.6-.5 11.8-1.2 21.1-1.5 21.1-.1 0-.4 2-.5 4.5-.1 2.5-.4 4.5-.5 4.5-.8 0-1.2 26.1-.4 30 .3 1.6.7 3.4.8 4 .1.5.4 1.4.7 2 .4.5 1 2.3 1.4 4 1 3.7 1 3.6 1.9 5.7.5 1 .9 2.9 1 4.3 0 1.4.5 2.5 1 2.5s.7.3.4.6c-.4.3-.2 2 .3 3.7.8 2.8 2.4 12.4 3.5 21.2.2 1.6.3 7.7.2 13.5-.1 5.8-.2 37-.3 69.5-.1 54.8-.6 71.8-2.1 79.8-.3 1.8-.8 4.7-1 6.5-.2 1.9-.8 4-1.4 4.7-.6.7-1 1.7-.8 2.1.3 1.4-3.6 11.4-4.5 11.4-.4 0-.5.5-.2 1 .4.6.3 1.6-.2 2.3-.5.7-2.9 5.9-5.3 11.7-6.3 15-19.9 42.1-28.6 56.7-10.6 17.9-34.9 53.4-40.9 59.9-.5.6-1.9 2.3-3 3.8s-3.3 4.2-4.9 5.9c-6.6 7.4-12.2 15.5-16 23.1-4.4 8.9-4.9 12.7-3.2 29.6.4 4.1.9 9.7 1.2 12.5.2 2.7.6 6.3.8 8 .6 3.9 1.3 11.2 2.1 20.5.4 4.1.8 8 1 8.7.4 1.3-4.5 5.3-6.5 5.3-.7 0-2.4.6-3.8 1.4-3 1.6-8.8 3.8-9.6 3.7-.3 0-2.4.6-4.6 1.4-2.2.8-4 1.2-4 .8 0-.3-.7 0-1.5.7s-1.5.9-1.5.6c0-.4-.8-.3-1.7.3-1 .5-3.6 1.1-5.8 1.5-2.2.3-8.3 1.4-13.6 2.5-5.3 1.1-11.8 2.3-14.5 2.7-2.7.3-5.8.8-6.9 1-1.1.2-4.5.7-7.5 1-3 .3-6.6.7-8 .9-6.9 1.3-26.1 2-49.5 1.9-26.2 0-41.4-.8-56.5-2.9-1.9-.3-5.7-.7-8.5-1-6-.5-13.1-1.3-16.5-2-2.4-.5-9.3-1.4-13.5-1.9-1.1-.1-4-.6-6.5-1.1-2.5-.5-5.6-.9-7-1-1.4-.2-2.5-.3-2.5-.4 0-.1-1.2-.4-2.6-.6-3.3-.4-10.1-1.6-11.4-1.9-1.3-.4-7.4-1.5-10.5-2-1.4-.3-2.5-.5-2.5-.6 0-.1-.9-.3-2-.5-4.8-.9-13.6-18.9-18.1-37-.4-1.7-.9-3.7-1.1-4.5-.2-.8-.5-2.4-.8-3.5-.2-1.1-.7-3.4-1-5-.4-1.7-.8-6.8-1-11.5-.2-4.7-.4-8.5-.5-8.5-.1 0-.3-1.6-.5-3.6-.1-2-.6-4.7-1.1-6-.4-1.3-.9-2.9-1-3.6-.3-1.8-2.4-8.5-3.4-10.8-1.6-3.9-3.5-9-3.6-10-.1-.6-2-5-4.3-9.8-2.3-4.9-4.1-9-4.1-9.2 0-.3-1.1-2.8-2.4-5.7-5.6-12.4-12.5-34.2-16.1-51.3-.5-2.3-1.3-5.9-1.4-6.3-.1-.1-.1-.4-.2-.7 0-.2-.4-1.9-.9-3.6-.5-1.8-1.2-5-1.6-7.3-.3-2.2-.8-4.4-1-4.7-.2-.4-.6-2.4-.9-4.5-.3-2.2-.7-5-1-6.4-.7-3.6-2.7-15-3.1-18.5-.2-1.7-1.1-7.8-1.9-13.6-2.8-20.2-3.9-49.4-2.2-58.9 1.3-7.4 2.4-14.6 3.1-21 .3-1.9.7-5.3 1.1-7.5.3-2.2.8-6.3 1-9 .3-2.8.7-6.6 1-8.5.3-1.9.8-5.9 1-8.9.3-3 .8-6.7 1-8.3.3-1.6.8-5.7 1-9.1.3-3.4.7-7.3 1-8.6.2-1.3.7-5.6 1.1-9.5.7-7.6 1.1-11.1 1.4-11.1.1 0 .3-2 .5-4.5.4-5.4 1.3-14 2.1-19.5.3-2.2.8-5.8 1-8 .6-6.5 2.1-17.7 2.9-21.5.6-2.7 1.7-13.7 1.6-15.8-.2-2.7-.1-4 .3-11.2.6-9.1 1.4-38.6 2.1-75.2.5-26 .9-35.1 2-46.3.2-2.8.7-7.9 1-11.5.3-3.6.8-7.9 1-9.5.2-1.7.7-5.3 1-8 .3-2.8.8-6.1 1-7.5.2-1.4.6-5.2 1-8.5.3-3.3 1-8.7 1.5-12 .5-3.3 1.1-8.2 1.5-10.9.3-2.7 1.5-7.5 2.6-10.5 1.1-3.1 2.5-7 3.1-8.6.6-1.7 1.4-3.2 1.7-3.5.3-.3 1.9-2.4 3.5-4.8 3.3-4.8 12.3-13.8 16.2-16.2 1.3-.8 2.4-1.9 2.4-2.5.1-1.5 12.1-9.4 16.6-11 11.6-4 22.5 6.8 31.9 31.7 1.8 4.8 3.4 6.3 3.3 3-.1-2 1.2-15.4 1.7-18.4.3-1.1.7-4.4 1-7.2.7-7 1.9-15.9 2.8-20.1.3-1.1.8-4.5 1.3-7.5.4-3 .8-5.7.9-6 .9-3.9 1.6-7.1 2-9.7 2.1-12.9 9.6-37.7 13.9-46 1.4-2.6 4-6.5 5.9-8.5 4.1-4.3 13.4-9.8 17.9-10.5 1.8-.3 3.8-.8 4.3-1.2 1.2-1 15.2-.7 18.1.3 2 .6 2.4 0 4.4-6.6 4.5-15 10.8-24.2 19.7-28.7 6.5-3.3 17.2-5.8 24.3-5.9 5.1 0 7.8.6 12.3 2.8z"/><path d="M501.6 64.5c-1.5.8-3.3 1.5-3.8 1.5s-2.2.9-3.8 2c-1.5 1.1-3 1.7-3.3 1.4-1-1-7.4 8.8-8.1 12.6-.1.3-.5 1.1-.9 1.7-1 1.5-1.7 4.5-2.2 9.1-.2 1.9-.8 3.9-1.3 4.5-.4.7-.7 2.5-.7 4.2.4 6.4-1.4 7.3-9.5 5-2.8-.8-3.7-.8-16.1-.2-12.3.6-15.4 2.7-24.1 16.8-2 3.3-4.8 9.4-6.3 13.7-1.5 4.2-3.6 9.5-4.6 11.7-1 2.2-2.1 6.5-2.4 9.5-.8 6.1-.9 7.2-2 14.9-.3 3-.8 6.1-1 7-.4 2.6-1.5 9.3-2.1 13.6-.3 2.2-.7 5.1-.9 6.5-.2 1.4-.7 5.6-1.1 9.3-.4 3.8-1.2 7.4-1.8 8-.6.7-1.1 1.9-1.1 2.7.1.8-.1 1.9-.4 2.5-.3.5-.6 3.2-.8 6-.7 11.7-1.2 21.6-1.8 30-.3 4.9-.7 13.2-1 18.3-.3 7-1.1 11.1-3.1 16-1.9 4.7-2.7 8.7-2.8 13.7-.2 7.3-1.7 11.5-4.1 11.5-1.7 0-2.7-1.6-3.1-4.9-.7-6.7-2.8-14.2-3.8-13.8-1.5.6-1.4-12.7.1-14.5 2.8-3.4 4.4-14.5 4.8-33.3.3-17.4-1.6-28.3-6.7-36.9-4.6-7.8-7.3-9.6-13.9-9.6-4.9 0-6.5.5-11 3.6-3 2-5.5 4-5.7 4.5-.2.5-1 .9-1.7.9-4.5 0-22.6 28.4-24.2 38-.7 4.6-1.1 6.5-1.3 6.5-.1 0-.4 1.3-.6 2.8-.1 1.6-.7 5.2-1.3 8-.5 2.9-.9 5.9-.9 6.7.2 4.7-1.7 18.1-3.8 26.8-1.1 4.5-1.3 8.3-.8 13.4.5 5.2.4 6.9-.5 6.4-.6-.4-1.1-.1-1.2.6-.4 5.7-.9 31.3-1.4 69.2-.3 24.7-.9 45.4-1.4 46-1.8 2.3-3.3 11.9-2.7 16.9 1.4 11.2 1.3 23.1-.2 25.7-.9 1.3-1.6 5.4-1.8 9-.1 3.6-.5 8-.9 9.9-.3 1.9-.8 8.2-1.1 14-.2 5.8-.6 11.9-.8 13.6-.5 3.5-1.4 11.2-2 17-.7 6-2.2 17.2-3.1 21.5-.2 1.4-.7 6.1-1.1 10.5-.9 11.7-1.2 14-1.4 14-.1 0-.3 1.6-.5 3.5-.1 1.9-.6 5.1-.9 7-1.5 7.7-2.7 16.3-3.1 22-.4 4.8-1 7.9-2.1 11.3-1 2.9-1 7 0 8.5.4.7.4 1.2-.1 1.2-1 0-.9 5.2.1 6.8.4.7.4 1.2-.1 1.2-1 0-.9 5.2.1 6.8.4.7.4 1.2-.1 1.2-1 0-.9 5.2.1 6.8.4.7.3 1.2-.1 1.2-1.3 0-.4 8.7 1.4 14.5.3 1.1.7 6.8.8 12.8.2 6.8.7 11.3 1.5 12.2.7.9 1.4 3.3 1.5 5.5.1 2.1.7 4.6 1.4 5.4.7.8 1.5 3 1.8 4.8.2 1.8 1 4.2 1.7 5.3.7 1.1 1.1 3.4.9 5.2-.2 1.9.3 4.3 1.3 5.8.9 1.4 1.3 2.5.9 2.5s-.3.6.3 1.2c.5.7.9 3.3.8 5.8-.1 2.5.5 5.7 1.2 7.2s1.5 4.9 1.6 7.6c.2 2.7.9 5.8 1.5 7 .6 1.1 1.1 3 1.1 4.1 0 1.1.7 2.4 1.6 2.9.8.5 1.7 1.9 1.8 3.3.2 1.3.9 3.7 1.5 5.2.6 1.6 1.1 3.8 1.1 5 0 1.3.9 3 2 4 1.1.9 1.7 2.2 1.4 3-.2.7.9 2.5 2.6 4 1.9 1.8 3 3.7 3 5.5 0 1.5 1.8 5.4 4 8.6 2.1 3.3 4.2 7.3 4.6 9 .3 1.7 1.1 3.6 1.6 4.3.5.7 1.2 2.9 1.4 5 .6 5.4.9 6.6 1.8 8.1.4.7.9 3.7 1.2 6.8.2 3 .8 6.4 1.4 7.5.6 1 1.3 4.6 1.5 7.9.2 3.3.8 6.8 1.3 7.7.6 1 1.2 5.2 1.5 9.3.9 11.1 2.3 17.2 5.6 23.7 1.6 3.2 3.5 7.8 4.2 10.3 1.4 4.9 2.4 6.2 5.4 7.5 2.3.9 2.4 1 12.8 2.6 4.2.7 7.7 1.7 7.7 2.1 0 .5.4.7.9.3.6-.3 4.3.1 8.3.9 16.1 3.3 20.6 3.8 22.8 2.6 1-.5 2-.6 2.4-.3.4.4 1.3.8 2.1.9.7.1 3.3.5 5.7.8 2.4.3 5.7.9 7.3 1.2 1.7.3 5.5.7 8.5.9 3 .2 5.5.4 5.5.6 0 .1 1.6.3 3.5.4 1.9.1 6.4.6 9.9 1 13.3 1.5 50.3 2.1 61.1 1.1 4-.4 14.1-1.7 18.5-2.3 4.1-.6 10.3-.5 14.3.1 2 .4 3.1.2 2.7-.4-.6-.9.9-1.2 7.3-1.3 1.2-.1 2.2-.3 2.2-.6s1.9-.7 4.3-.8c10.3-.4 29.3-5.5 38.7-10.3 4.3-2.2 6.5-2.6 5.5-1-.3.5-.3 1 0 1 .9 0 10.4-7.2 13.9-10.6 1.3-1.3 1.4-16.1.2-27.9-.4-3.9-.9-9.9-1.1-13.5-.2-3.6-.4-6.7-.5-7-.1-.3-.2-3.9-.2-8.1-.1-9.1 2.3-17 6.2-20.7 1.8-1.8 2.7-3.8 2.8-5.9.1-3.6 1.5-6 8.7-15.3 2.8-3.6 6.2-8.3 7.5-10.5 1.3-2.1 3.2-4.7 4.2-5.7.9-.9 2.8-3.5 4.2-5.6 1.4-2.2 3.5-5.1 4.8-6.5 1.3-1.3 4.8-6.8 7.8-12.1 4.8-8.5 20.5-33.3 22.8-36.1 6.4-7.8 10.8-14.6 14.1-22.1 2.3-5.1 4.1-9.6 4.1-10.2 0-1.4 6.2-16.6 7-17.2.4-.3 1.8-2.8 3-5.5 3.3-7.4 3.8-8.8 4.6-11.4.3-1.3 1.3-4 2.1-6 .9-2 1.4-3.8 1.3-4-.1-.2.3-.7.9-1 .6-.4 1.3-4.7 1.6-9.7.2-4.9 1-11.2 1.7-13.9 1.3-4.9 1.4-16 .2-22-.3-1.7-.8-18.3-1-37-.2-18.7-.6-34.6-.9-35.3-.2-.6 0-1.2.5-1.2.8 0 .5-3.8-.5-6.8-.2-.6-.1-1.2.3-1.2.9 0 .6-41.4-.3-49.4-.7-6.1-1.2-9.1-1.5-9.1-.3 0-.9-4.1-1.2-7.7-.2-2.1-.5-3.8-.8-3.8-.3 0-.6-.8-.7-1.8-.2-1.8-.6-4.3-2.8-14.2-.2-.8-.4-1.5-.6-1.5-1.2 0-1.7-21-.7-33 .3-3.3 1-7 1.7-8.3.7-1.2 1.3-7 1.4-13.2.1-6.1.4-11 .7-11 .3 0 .4-1.5.3-3.2-.1-1.8-.2-3.3-.3-3.3-.1 0-.3-2.3-.5-5.2-.3-4-1.2-6.5-4.1-10.9-6.8-10.2-9.5-11.9-19.6-12.3-7.8-.3-11.3 1.5-20.2 10.3-8.8 8.7-12.1 13.7-19.5 29.1-6.9 14.3-6.9 14.4-7.5 18.4-1.2 8.3-3.6 4.5-4-6.4-.2-2.8-.5-5.6-.8-6.1-.3-.5-.4-8.1-.3-16.8.2-17.2-.6-23.9-3.5-29.6-1-2-2.1-6.7-2.5-10.5-.4-3.9-1.3-9.8-2-13.1-.8-3.4-1.6-7.3-1.9-8.7-.2-1.4-.9-3.4-1.4-4.4-1.8-3.5-3.5-11.9-3.7-18.3-.1-3.6-.6-9.4-1-13-.4-3.6-.9-13.5-1-22-.3-15.4-.6-19.3-2.5-30.2-.6-3.1-1-8-.9-11 .1-3-.3-6.9-.9-8.8-1.1-3.6-2.1-10.1-2.8-17.8-.1-2.3-.5-4.6-.8-5.1-.3-.5-.8-3.3-1.2-6.2-.4-3-.7-5.9-.8-6.5-.1-.7-.8-1.9-1.5-2.7-.7-.9-1.4-2.2-1.5-2.9-.1-.7-.5-1.9-.9-2.6-.5-.6-.6-1.2-.3-1.2s-.1-1.8-.9-4-1.4-4.2-1.5-4.5c0-.3-.1-.7-.1-1-.1-.3-.3-1-.4-1.5-.1-.6-.3-1.1-.5-1.3-.2-.2-.7-2.4-1.3-5.1-.2-.8-.8-2-1.3-2.7-.6-.8-1.6-2.8-2.3-4.5-2.1-5.4-14-15.8-20.6-18.1-4.1-1.4-14.2-.9-18.5 1-4.7 1.9-8.2 5.4-11.4 11.1-3 5.5-3.1 5.6-1.1 5.6 1.3 0 1.2.5-.5 2.8-1.1 1.5-2.2 3.6-2.5 4.7-.3 1.1-.8 3.6-1.3 5.5-.5 2.2-1.5 3.6-2.6 3.8-1.1.2-1.6 0-1.2-.6.3-.6.3-1.3-.1-1.5-.6-.4-.9-7.2-.3-7.2.1 0 .3-15.9.2-22.5 0-1.4-.1-5-.1-8-.1-13.3-2.1-19.2-10.7-30.7-5.6-7.3-8.5-10.3-12.2-12.2-2.6-1.4-5.3-2.7-5.9-2.8-.6-.1-2.3-.5-3.9-.8-6.9-1.5-14.9-1.5-17.8 0zm-19.1 452.9c1.1.3 3.6 1 5.5 1.6 1.9.6 7.4 1.9 12.1 3 5.9 1.2 10.4 3 14.2 5.4 3.1 2 5.9 3.6 6.3 3.6.4 0 2.9 2.4 5.7 5.2 5.9 6.3 10.7 14.3 10.7 17.9 0 1.4.3 2.9.7 3.3.4.3.8 1.6 1 2.8.2 1.2.9 2.9 1.7 3.7 1.3 1.6 3.8 7.4 4.4 10.1.1.8.5 2.8.8 4.5.8 4 1.2 22.7.5 24-.3.5-.6 1.9-.7 3-.3 3.1-1.2 7.4-1.8 8.4-.4.5-.3 1.2.2 1.5.5.3.7 2 .5 3.8-.2 1.8-.5 5.3-.8 7.8-.2 2.5-.8 7-1.3 10-.6 3-.8 5.8-.6 6.2.2.3.1.8-.3 1-.5.1-2.1 3-3.8 6.3-3 6.1-19.8 29-24.4 33.4-1.4 1.3-4.5 3.3-6.8 4.3-2.4 1-4.3 2.3-4.3 2.8 0 2.1-18.2 5.2-30.5 5.3-7.2 0-30.3-1.3-33-1.9-5.4-1.1-6-1.2-6.2-1.4-.2-.2-.7-.4-1.3-.5-.5-.1-1.2-.4-1.5-.5-.3-.1-.8-.3-1.2-.5-.5-.1-2.1-.7-3.6-1.3-1.6-.7-3.4-1.2-4.2-1.2-.8 0-1.7-.5-2-1-.3-.6-1.5-1-2.6-1-1 0-1.9-.5-1.9-1.1 0-.5-.5-.7-1.1-.4-.5.4-1.8 0-2.7-.8-.9-.8-2.8-1.7-4.2-2.1-3.9-1-6.2-3.4-13.1-14.1-12.7-19.5-15.4-29.7-15.4-58.5.1-10.4.4-12.4 3.2-20.5 1.8-5 3.4-10.1 3.7-11.5 1.3-7.4 9.5-25.4 13.6-29.8 1.1-1.2 2-2.4 2-2.7 0-1.2 12.5-13.1 15-14.4 1.4-.6 4.1-2.1 6.2-3.1 4.4-2.3 26.8-9.9 32.3-10.9 4.3-.8 25.7-.6 29 .3z"/><path d="M413.5 933c-.3.5-.1 1 .4 1 .6 0 1.1-.5 1.1-1 0-.6-.2-1-.4-1-.3 0-.8.4-1.1 1z"/></svg>